# xmcd CD database file
#
# Track frame offsets:
#	150
#	19012
#	38477
#	52900
#	71710
#	90847
#	109597
#	126882
#	143315
#	161860
#	182890
#
# Disc length: 2652 seconds
#
# Revision: 0
# Processed by: cddbd v1.4PL0 Copyright (c) Steve Scherf et al.
# Submitted via: CDex 1.50Beta7
#
DISCID=830a5a0b
DTITLE=Leandro y Leonardo - Leandro y Leonardo
DYEAR=1997
DGENRE=Country
TTITLE0=Dulce Misterio
TTITLE1=Te Juro ( I Swear )
TTITLE2=Loca de Amor
TTITLE3=Juegos de Orgullo
TTITLE4=Disculpa Mas Voy Llorar
TTITLE5=Sueño Por Sueño
TTITLE6=No Aprendi a Decir Adios
TTITLE7=Dime Amor
TTITLE8=Di Que Me Amas
TTITLE9=Talisman
TTITLE10=Que Fue de Ti
EXTD=YEAR: 1997
EXTT0=
EXTT1=
EXTT2=
EXTT3=
EXTT4=
EXTT5=
EXTT6=
EXTT7=
EXTT8=
EXTT9=
EXTT10=
PLAYORDER=
